<mxfile host="app.diagrams.net" modified="2023-08-27T00:29:13.234Z" agent="Mozilla/5.0 (Windows NT 10.0; Win64; x64) AppleWebKit/537.36 (KHTML, like Gecko) Chrome/116.0.0.0 Safari/537.36" etag="OujrCOP7r8DdP4mFzv4p" version="21.6.9" type="device">
  <diagram name="Página-1" id="VPaBMDaHTB9HfiLiQaGy">
    <mxGraphModel dx="1050" dy="566" grid="1" gridSize="10" guides="1" tooltips="1" connect="1" arrows="1" fold="1" page="1" pageScale="1" pageWidth="827" pageHeight="1169" math="0" shadow="0">
      <root>
        <mxCell id="0" />
        <mxCell id="1" parent="0" />
        <mxCell id="px3PM5JMwltkZzgfnrHL-3" value="" style="edgeStyle=orthogonalEdgeStyle;rounded=0;orthogonalLoop=1;jettySize=auto;html=1;" edge="1" parent="1" source="px3PM5JMwltkZzgfnrHL-1" target="px3PM5JMwltkZzgfnrHL-2">
          <mxGeometry relative="1" as="geometry" />
        </mxCell>
        <mxCell id="px3PM5JMwltkZzgfnrHL-1" value="" style="ellipse;whiteSpace=wrap;html=1;aspect=fixed;fillColor=#d5e8d4;strokeColor=#82b366;" vertex="1" parent="1">
          <mxGeometry x="30" y="30" width="70" height="70" as="geometry" />
        </mxCell>
        <mxCell id="px3PM5JMwltkZzgfnrHL-7" style="edgeStyle=orthogonalEdgeStyle;rounded=0;orthogonalLoop=1;jettySize=auto;html=1;exitX=1;exitY=0.5;exitDx=0;exitDy=0;entryX=0;entryY=0.5;entryDx=0;entryDy=0;" edge="1" parent="1" source="px3PM5JMwltkZzgfnrHL-2" target="px3PM5JMwltkZzgfnrHL-6">
          <mxGeometry relative="1" as="geometry" />
        </mxCell>
        <mxCell id="px3PM5JMwltkZzgfnrHL-2" value="Ler valor da renda&lt;br&gt;&lt;b&gt;(VR)&lt;/b&gt;" style="whiteSpace=wrap;html=1;" vertex="1" parent="1">
          <mxGeometry x="155" y="37.5" width="115" height="55" as="geometry" />
        </mxCell>
        <mxCell id="px3PM5JMwltkZzgfnrHL-11" style="edgeStyle=orthogonalEdgeStyle;rounded=0;orthogonalLoop=1;jettySize=auto;html=1;exitX=1;exitY=0.5;exitDx=0;exitDy=0;entryX=0;entryY=0.5;entryDx=0;entryDy=0;" edge="1" parent="1" source="px3PM5JMwltkZzgfnrHL-6" target="px3PM5JMwltkZzgfnrHL-10">
          <mxGeometry relative="1" as="geometry" />
        </mxCell>
        <mxCell id="px3PM5JMwltkZzgfnrHL-6" value="Ler valor da prestação&lt;br&gt;&lt;b&gt;(VP)&lt;/b&gt;" style="whiteSpace=wrap;html=1;" vertex="1" parent="1">
          <mxGeometry x="320" y="37.5" width="115" height="55" as="geometry" />
        </mxCell>
        <mxCell id="px3PM5JMwltkZzgfnrHL-13" value="" style="edgeStyle=orthogonalEdgeStyle;rounded=0;orthogonalLoop=1;jettySize=auto;html=1;" edge="1" parent="1" source="px3PM5JMwltkZzgfnrHL-10" target="px3PM5JMwltkZzgfnrHL-12">
          <mxGeometry relative="1" as="geometry" />
        </mxCell>
        <mxCell id="px3PM5JMwltkZzgfnrHL-10" value="&lt;b&gt;Calcular&lt;br&gt;(VR/VP * 100)&lt;br&gt;&lt;/b&gt;" style="whiteSpace=wrap;html=1;" vertex="1" parent="1">
          <mxGeometry x="510" y="37.5" width="115" height="55" as="geometry" />
        </mxCell>
        <mxCell id="px3PM5JMwltkZzgfnrHL-21" style="edgeStyle=orthogonalEdgeStyle;rounded=0;orthogonalLoop=1;jettySize=auto;html=1;exitX=1;exitY=0.5;exitDx=0;exitDy=0;entryX=0;entryY=0.5;entryDx=0;entryDy=0;" edge="1" parent="1" source="px3PM5JMwltkZzgfnrHL-12" target="px3PM5JMwltkZzgfnrHL-18">
          <mxGeometry relative="1" as="geometry" />
        </mxCell>
        <mxCell id="px3PM5JMwltkZzgfnrHL-22" style="edgeStyle=orthogonalEdgeStyle;rounded=0;orthogonalLoop=1;jettySize=auto;html=1;exitX=0;exitY=0.5;exitDx=0;exitDy=0;entryX=1;entryY=0.5;entryDx=0;entryDy=0;" edge="1" parent="1" source="px3PM5JMwltkZzgfnrHL-12" target="px3PM5JMwltkZzgfnrHL-19">
          <mxGeometry relative="1" as="geometry" />
        </mxCell>
        <mxCell id="px3PM5JMwltkZzgfnrHL-12" value="" style="rhombus;whiteSpace=wrap;html=1;" vertex="1" parent="1">
          <mxGeometry x="527.5" y="160" width="80" height="80" as="geometry" />
        </mxCell>
        <mxCell id="px3PM5JMwltkZzgfnrHL-25" style="edgeStyle=orthogonalEdgeStyle;rounded=0;orthogonalLoop=1;jettySize=auto;html=1;exitX=0.5;exitY=1;exitDx=0;exitDy=0;entryX=1;entryY=0.5;entryDx=0;entryDy=0;" edge="1" parent="1" source="px3PM5JMwltkZzgfnrHL-18" target="px3PM5JMwltkZzgfnrHL-23">
          <mxGeometry relative="1" as="geometry" />
        </mxCell>
        <mxCell id="px3PM5JMwltkZzgfnrHL-18" value="&lt;font style=&quot;font-size: 10px;&quot;&gt;A prestação corresponde a XX% da renda familiar&lt;br&gt;&lt;/font&gt;&lt;b&gt;(EXIBIR)&lt;br&gt;&lt;/b&gt;" style="whiteSpace=wrap;html=1;" vertex="1" parent="1">
          <mxGeometry x="690" y="172.5" width="115" height="55" as="geometry" />
        </mxCell>
        <mxCell id="px3PM5JMwltkZzgfnrHL-24" style="edgeStyle=orthogonalEdgeStyle;rounded=0;orthogonalLoop=1;jettySize=auto;html=1;exitX=0.5;exitY=1;exitDx=0;exitDy=0;entryX=0;entryY=0.5;entryDx=0;entryDy=0;" edge="1" parent="1" source="px3PM5JMwltkZzgfnrHL-19" target="px3PM5JMwltkZzgfnrHL-23">
          <mxGeometry relative="1" as="geometry" />
        </mxCell>
        <mxCell id="px3PM5JMwltkZzgfnrHL-19" value="&lt;font style=&quot;font-size: 11px;&quot;&gt;Será necessário complementar a renda familiar&lt;br style=&quot;font-size: 11px;&quot;&gt;&lt;/font&gt;&lt;b style=&quot;border-color: var(--border-color); font-size: 11px;&quot;&gt;(EXIBIR)&lt;/b&gt;&lt;b style=&quot;font-size: 11px;&quot;&gt;&lt;br style=&quot;font-size: 11px;&quot;&gt;&lt;/b&gt;" style="whiteSpace=wrap;html=1;fontSize=11;" vertex="1" parent="1">
          <mxGeometry x="350" y="172.5" width="115" height="55" as="geometry" />
        </mxCell>
        <mxCell id="px3PM5JMwltkZzgfnrHL-23" value="" style="ellipse;whiteSpace=wrap;html=1;aspect=fixed;fillColor=#f8cecc;strokeColor=#b85450;" vertex="1" parent="1">
          <mxGeometry x="532.5" y="400" width="70" height="70" as="geometry" />
        </mxCell>
        <mxCell id="px3PM5JMwltkZzgfnrHL-26" value="&lt;b&gt;&amp;gt;30%&lt;/b&gt;" style="text;html=1;strokeColor=none;fillColor=none;align=center;verticalAlign=middle;whiteSpace=wrap;rounded=0;" vertex="1" parent="1">
          <mxGeometry x="472.5" y="170" width="60" height="30" as="geometry" />
        </mxCell>
        <mxCell id="px3PM5JMwltkZzgfnrHL-27" value="&lt;b&gt;&amp;lt;=30%&lt;/b&gt;" style="text;html=1;strokeColor=none;fillColor=none;align=center;verticalAlign=middle;whiteSpace=wrap;rounded=0;" vertex="1" parent="1">
          <mxGeometry x="610" y="170" width="60" height="30" as="geometry" />
        </mxCell>
      </root>
    </mxGraphModel>
  </diagram>
</mxfile>
